:FULLY-SPECIFIED
:FORCE-ALL-JOINTS-BE-3DOF
:DEGREES
178
root 8.11672 16.7217 -12.2461 7.85246 6.74261 -2.01331
lfemur -26.3308 8.16272 -17.8602
ltibia 62.5736 -0 0
lfoot -9.91673 10.0609 -0.0169983
ltoes -0.849077 0 0
rfemur -20.4382 3.19814 26.5707
rtibia 27.6611 -0 0
rfoot -17.4366 1.68644 0.00211614
rtoes -15.6099 0 0
lowerback -4.43269 0.512938 0.443455
upperback -1.28519 0.620435 3.46753
thorax 1.13072 0.314838 3.36501
lowerneck -17.1047 -7.66313 -15.6889
upperneck 13.6381 -9.48393 15.915
head 8.63278 -3.90887 6.78439
lclavicle -4.74596e-15 -1.82882e-14 0
lhumerus -47.1126 -12.0704 96.564
lradius 32.6686 -0 0
lwrist 15.9757 0 0
lhand -13.2532 -26.0211 -0.0283158
lfingers 7.12502 0 0
lthumb 12.8501 3.57893 -0.0229642
rclavicle -4.74596e-15 -1.82882e-14 0
rhumerus -39.9069 11.2547 -79.2129
rradius 41.041 -0 0
rwrist -20.8367 0 0
rhand -30.5113 -23.6735 -0.00372168
rfingers 7.12502 0 0
rthumb -3.81126 -53.6199 -0.00353024
179
root 8.11327 16.7117 -12.1268 7.80246 6.54229 -2.06966
lfemur -27.5106 8.05895 -18.0865
ltibia 62.3371 -0 0
lfoot -10.9339 10.3777 -0.0129163
ltoes -2.05145 0 0
rfemur -20.0159 3.37623 26.7386
rtibia 27.7762 -0 0
rfoot -17.8097 1.61298 0.00157087
rtoes -15.3222 0 0
lowerback -4.57004 0.611633 0.451714
upperback -0.810635 0.732218 3.4648
thorax 1.68955 0.363631 3.36857
lowerneck -18.4291 -7.83016 -15.4337
upperneck 13.9504 -9.59447 15.7466
head 8.96994 -3.90114 6.65253
lclavicle -6.90774e-15 -1.43125e-14 0
lhumerus -46.1525 -11.8306 96.1525
lradius 32.7431 -0 0
lwrist 16.5956 0 0
lhand -13.1691 -25.4539 -0.0154777
lfingers 7.12502 0 0
lthumb 12.9309 4.13536 -0.0122352
rclavicle -6.90774e-15 -1.43125e-14 0
rhumerus -38.4914 10.8526 -78.7777
rradius 41.3873 -0 0
rwrist -20.7814 0 0
rhand -30.3454 -23.8375 -0.00450517
rfingers 7.12502 0 0
rthumb -3.65101 -53.7868 -0.0042673
180
root 8.10982 16.7017 -12.0076 7.75126 6.34619 -2.11942
lfemur -28.6423 7.94987 -18.308
ltibia 61.9859 -0 0
lfoot -11.8746 10.6874 -0.00584834
ltoes -3.19775 0 0
rfemur -19.5694 3.54298 26.8971
rtibia 27.8724 -0 0
rfoot -18.1738 1.54627 0.000701098
rtoes -15.0223 0 0
lowerback -4.67524 0.709623 0.463138
upperback -0.441458 0.847394 3.45726
thorax 2.12221 0.415734 3.36307
lowerneck -19.416 -7.94401 -15.2263
upperneck 14.1928 -9.67134 15.6175
head 9.22227 -3.89205 6.55164
lclavicle -9.06952e-15 -1.03368e-14 0
lhumerus -45.4287 -11.6235 95.8269
lradius 32.7883 -0 0
lwrist 17.1 0 0
lhand -13.1355 -24.9237 -0.00447192
lfingers 7.12502 0 0
lthumb 12.9629 4.6573 -0.00336174
rclavicle -9.06952e-15 -1.03368e-14 0
rhumerus -37.3361 10.4574 -78.4059
rradius 41.7687 -0 0
rwrist -20.772 0 0
rhand -30.2662 -24.0402 -0.00333447
rfingers 7.12502 0 0
rthumb -3.57455 -53.9907 -0.00314946
181
root 8.10637 16.6917 -11.8883 7.70227 6.15665 -2.15791
lfemur -29.7187 7.83825 -18.53
ltibia 61.5101 0 0
lfoot -12.6816 10.9469 0
ltoes -4.00776 0 0
rfemur -19.0833 3.6888 27.0395
rtibia 27.9291 0 0
rfoot -18.5255 1.50193 0
rtoes -14.7495 0 0
lowerback -4.71648 0.812651 0.480998
upperback -0.271957 0.977584 3.44129
thorax 2.31344 0.478519 3.3425
lowerneck -19.7579 -7.97371 -15.1292
upperneck 14.295 -9.69407 15.5712
head 9.31356 -3.88573 6.51286
lclavicle -1.12313e-14 -6.36111e-15 0
lhumerus -45.1518 -11.4728 95.6492
lradius 32.8186 0 0
lwrist 17.4559 0 0
lhand -13.2896 -24.5618 0
lfingers 7.12502 0 0
lthumb 12.8141 5.02488 0
rclavicle -1.12313e-14 -6.36111e-15 0
rhumerus -36.6598 10.1208 -78.1344
rradius 42.2132 0 0
rwrist -20.8456 0 0
rhand -30.3406 -24.2694 0
rfingers 7.12502 0 0
rthumb -3.64639 -54.2179 0
182
root 8.10793 16.6846 -11.7625 7.65514 5.97387 -2.17795
lfemur -30.7427 7.72383 -18.7634
ltibia 60.9104 -0 0
lfoot -13.3723 11.1971 0.00141248
ltoes -4.46545 0 0
rfemur -18.5649 3.80476 27.1585
rtibia 27.9736 -0 0
rfoot -18.8783 1.47949 -0.000301052
rtoes -14.5042 0 0
lowerback -4.67912 0.924856 0.505718
upperback -0.353903 1.13052 3.41002
thorax 2.20166 0.556616 3.2992
lowerneck -19.2887 -7.89891 -15.1633
upperneck 14.2261 -9.64866 15.6251
head 9.20345 -3.88285 6.54938
lclavicle -1.07302e-14 -8.21644e-15 0
lhumerus -45.4343 -11.4137 95.6598
lradius 32.8299 -0 0
lwrist 17.6436 0 0
lhand -13.698 -24.3418 -0.000584862
lfingers 7.12502 0 0
lthumb 12.4202 5.26738 -0.000892393
rclavicle -1.07302e-14 -8.21644e-15 0
rhumerus -36.5826 9.83627 -77.9667
rradius 42.7496 -0 0
rwrist -21.0107 0 0
rhand -30.6089 -24.5525 0.00455132
rfingers 7.12502 0 0
rthumb -3.9055 -54.495 0.00427969
183
root 8.10948 16.6774 -11.6367 7.60696 5.79605 -2.18188
lfemur -31.7205 7.60463 -19.006
ltibia 60.1951 -0 0
lfoot -13.9963 11.4809 0.000571951
ltoes -4.79178 0 0
rfemur -18.0284 3.89696 27.2574
rtibia 28.0279 -0 0
rfoot -19.2374 1.46633 -0.000406937
rtoes -14.2549 0 0
lowerback -4.58564 1.04243 0.534986
upperback -0.622303 1.29828 3.36407
thorax 1.86668 0.644822 3.23589
lowerneck -18.2213 -7.74108 -15.2825
upperneck 14.036 -9.54875 15.7478
head 8.94485 -3.8803 6.63888
lclavicle -1.02291e-14 -1.00718e-14 0
lhumerus -46.129 -11.4358 95.8158
lradius 32.8097 -0 0
lwrist 17.6856 0 0
lhand -14.2644 -24.1535 -0.00108249
lfingers 7.12502 0 0
lthumb 11.874 5.48654 -0.00165719
rclavicle -1.02291e-14 -1.00718e-14 0
rhumerus -36.9514 9.56629 -77.8682
rradius 43.3611 -0 0
rwrist -21.239 0 0
rhand -31.0259 -24.9049 0.00821588
rfingers 7.12502 0 0
rthumb -4.30807 -54.8383 0.00771733
184
root 8.11104 16.6703 -11.5109 7.55733 5.62249 -2.17926
lfemur -32.6502 7.48109 -19.2439
ltibia 59.365 -0 0
lfoot -14.544 11.7578 -0.000687025
ltoes -5.06205 0 0
rfemur -17.4681 3.97826 27.3463
rtibia 28.0634 -0 0
rfoot -19.5875 1.45992 -0.000351385
rtoes -13.9935 0 0
lowerback -4.45994 1.1592 0.567973
upperback -0.996291 1.46903 3.31101
thorax 1.40538 0.735715 3.16215
lowerneck -16.8164 -7.532 -15.4481
upperneck 13.776 -9.41535 15.9098
head 8.60146 -3.87644 6.75926
lclavicle -9.72801e-15 -1.19271e-14 0
lhumerus -47.0575 -11.4939 96.0538
lradius 32.7601 -0 0
lwrist 17.612 0 0
lhand -14.8815 -24.0021 -0.000873046
lfingers 7.12502 0 0
lthumb 11.2789 5.67121 -0.00147716
rclavicle -9.72801e-15 -1.19271e-14 0
rhumerus -37.5745 9.31558 -77.818
rradius 44.0077 -0 0
rwrist -21.5131 0 0
rhand -31.5296 -25.2961 0.00941657
rfingers 7.12502 0 0
rthumb -4.79447 -55.2186 0.0088393
185
root 8.1126 16.6631 -11.3852 7.50594 5.4525 -2.17966
lfemur -33.5297 7.35413 -19.4634
ltibia 58.4213 -0 0
lfoot -15.0057 11.9874 -0.00141581
ltoes -5.35153 0 0
rfemur -16.8785 4.06128 27.4353
rtibia 28.0511 -0 0
rfoot -19.9132 1.45771 -0.000196906
rtoes -13.7117 0 0
lowerback -4.32592 1.269 0.603731
upperback -1.39492 1.6311 3.25901
thorax 0.914688 0.822161 3.08793
lowerneck -15.3343 -7.3053 -15.6234
upperneck 13.4971 -9.26979 16.0818
head 8.23697 -3.86996 6.8884
lclavicle -9.22691e-15 -1.37824e-14 0
lhumerus -48.041 -11.5448 96.3097
lradius 32.6831 -0 0
lwrist 17.453 0 0
lhand -15.442 -23.8933 -0.0001725
lfingers 7.12502 0 0
lthumb 10.7383 5.81021 -0.000554562
rclavicle -9.22691e-15 -1.37824e-14 0
rhumerus -38.2607 9.088 -77.7971
rradius 44.6492 -0 0
rwrist -21.8155 0 0
rhand -32.0584 -25.6957 0.00765687
rfingers 7.12502 0 0
rthumb -5.30502 -55.6067 0.00718564
186
root 8.11415 16.656 -11.2594 7.4525 5.28538 -2.19263
lfemur -34.357 7.22506 -19.6509
ltibia 57.3647 -0 0
lfoot -15.3719 12.1293 -0.00124341
ltoes -5.73553 0 0
rfemur -16.254 4.15845 27.5351
rtibia 27.9624 -0 0
rfoot -20.199 1.45714 -3.84132e-05
rtoes -13.4012 0 0
lowerback -4.20749 1.36571 0.641186
upperback -1.73717 1.77307 3.21682
thorax 0.491568 0.897426 3.02361
lowerneck -14.0341 -7.09768 -15.7755
upperneck 13.2501 -9.13391 16.2348
head 7.91507 -3.86006 7.0042
lclavicle -8.72582e-15 -1.56378e-14 0
lhumerus -48.8998 -11.5483 96.5176
lradius 32.5809 -0 0
lwrist 17.2388 0 0
lhand -15.8388 -23.8322 0.000340639
lfingers 7.12502 0 0
lthumb 10.3556 5.89238 0.000253277
rclavicle -8.72582e-15 -1.56378e-14 0
rhumerus -38.8194 8.88741 -77.7883
rradius 45.2456 -0 0
rwrist -22.1288 0 0
rhand -32.5504 -26.0734 0.00379667
rfingers 7.12502 0 0
rthumb -5.78009 -55.9732 0.00356414
